<?xml version="1.0" encoding="UTF-8" standalone="no"?>
<svg
   id="visual"
   viewBox="0 0 900 450"
   width="900"
   height="450"
   version="1.1"
   xmlns="http://www.w3.org/2000/svg"
   xmlns:svg="http://www.w3.org/2000/svg">
  <defs
     id="defs7" />
  <path
     id="rect109"
     style="fill:#ffb8c2;stroke-width:0.997789"
     d="M 0,0.1640625 H -0.875 V 600.04297 h 900 V 18.779297 l -4.92578,10.021484 c -1.475,2.974997 -3.30547,6.680473 -5.40234,10.707031 -2.09688,4.026559 -4.4586,8.372661 -6.9961,12.628907 -2.5375,4.256245 -5.25,8.421878 -8.04687,12.085937 -1.39844,1.83203 -2.81876,3.540431 -4.24805,5.070313 -1.4293,1.529881 -2.86914,2.882813 -4.30664,4.007812 -1.4375,1.124999 -2.87188,2.020313 -4.30664,2.71875 -1.43477,0.698437 -2.86993,1.200001 -4.30274,1.53125 -1.43281,0.33125 -2.86328,0.492188 -4.29492,0.515625 C 850.86328,78.089844 849.43125,77.975 848,77.75 c -1.43125,-0.225 -2.86328,-0.558594 -4.29492,-0.972656 -1.43164,-0.414062 -2.86211,-0.909376 -4.29492,-1.453125 -2.86563,-1.087499 -5.73438,-2.375001 -8.60938,-3.625 -5.74999,-2.499998 -11.52579,-4.84844 -17.30078,-7.023438 -5.77499,-2.174998 -11.55079,-4.176564 -17.30078,-5.976562 -2.875,-0.924999 -5.74375,-1.805079 -8.60938,-2.517578 -2.86562,-0.7125 -5.72734,-1.25586 -8.58984,-1.50586 -1.43125,-0.125 -2.86328,-0.178125 -4.29492,-0.140625 -1.43164,0.0375 -2.86211,0.165235 -4.29492,0.396485 -1.43281,0.231249 -2.86797,0.567188 -4.30274,1.023437 -1.43476,0.45625 -2.86914,1.031641 -4.30664,1.744141 -1.4375,0.699999 -2.87773,1.537891 -4.31836,2.466797 -1.44062,0.928905 -2.88242,1.950001 -4.32617,3.015625 -2.8875,2.131247 -5.78164,4.443361 -8.68164,6.568359 -1.45,1.062499 -2.90039,2.077345 -4.35352,3 -1.45312,0.922655 -2.90898,1.752735 -4.36523,2.443359 -1.45625,0.690625 -2.91367,1.242969 -4.37305,1.609375 -1.45937,0.366406 -2.92031,0.548047 -4.38281,0.498047 -1.4625,-0.0375 -2.92344,-0.305664 -4.38281,-0.748047 -1.45938,-0.442382 -2.9168,-1.060547 -4.37305,-1.798828 -2.9125,-1.476561 -5.81875,-3.435158 -8.71875,-5.441406 -2.9,-2.006248 -5.79414,-4.058595 -8.68164,-5.722656 -1.44375,-0.832031 -2.88555,-1.567384 -4.32617,-2.150391 -1.44063,-0.583007 -2.88086,-1.015234 -4.31836,-1.240234 -1.4375,-0.2375 -2.87188,-0.266602 -4.30664,-0.132813 -1.43477,0.133789 -2.86993,0.431251 -4.30274,0.847656 -1.43281,0.416406 -2.86328,0.95215 -4.29492,1.5625 -1.43164,0.610351 -2.86367,1.296095 -4.29492,2.011719 -2.8625,1.431249 -5.72422,2.984377 -8.58984,4.304688 -1.43281,0.660155 -2.86797,1.262305 -4.30274,1.761719 -1.43476,0.499413 -2.86914,0.894531 -4.30664,1.144531 -1.4375,0.25 -2.87773,0.35332 -4.31836,0.320312 -1.44062,-0.03301 -2.88242,-0.201563 -4.32617,-0.496093 -1.44375,-0.294531 -2.88906,-0.713478 -4.33594,-1.248047 -1.44687,-0.53457 -2.8957,-1.184376 -4.3457,-1.9375 -1.45,-0.753125 -2.90039,-1.610353 -4.35352,-2.560547 -1.45312,-0.950195 -2.90898,-1.993361 -4.36523,-3.119141 C 628.84336,60.406643 625.925,57.824997 623,55 c -2.925,-2.824997 -5.84336,-5.906644 -8.75586,-9.041016 -2.9125,-3.134371 -5.81875,-6.321878 -8.71875,-9.359375 -2.9,-3.037497 -5.79414,-5.924612 -8.68164,-8.458984 -1.44375,-1.267186 -2.88555,-2.446485 -4.32617,-3.511719 -1.44063,-1.065233 -2.88086,-2.015626 -4.31836,-2.828125 -1.4375,-0.812499 -2.87188,-1.4875 -4.30664,-2.03125 -1.43477,-0.543749 -2.86993,-0.95625 -4.30274,-1.25 -1.43281,-0.293749 -2.86328,-0.46875 -4.29492,-0.53125 C 573.86328,17.925781 572.43125,17.975 571,18.125 c -1.43125,0.15 -2.86328,0.402344 -4.29492,0.746094 -1.43164,0.343749 -2.86211,0.778125 -4.29492,1.296875 -2.86563,1.037499 -5.73438,2.406251 -8.60938,4.03125 -2.875,1.624998 -5.75625,3.507033 -8.64062,5.402343 -2.88438,1.895311 -5.77266,3.80508 -8.66016,5.486329 -1.44375,0.840624 -2.88672,1.624024 -4.33008,2.320312 -1.44336,0.696288 -2.88789,1.305469 -4.33008,1.796875 -1.44218,0.491406 -2.88203,0.865821 -4.32226,1.091797 -1.44023,0.225976 -2.88086,0.303125 -4.31836,0.203125 -1.4375,-0.1 -2.87188,-0.381055 -4.30664,-0.783203 -1.43477,-0.402148 -2.86993,-0.926173 -4.30274,-1.509766 -2.86562,-1.167186 -5.72734,-2.575392 -8.58984,-3.74414 -1.43125,-0.584375 -2.86328,-1.108009 -4.29492,-1.511719 -1.43164,-0.403711 -2.86211,-0.688672 -4.29492,-0.791016 -1.43281,-0.102343 -2.86797,-0.02285 -4.30274,0.296875 -1.43476,0.319726 -2.86914,0.879689 -4.30664,1.742188 -1.4375,0.849999 -2.87773,2.001564 -4.31836,3.382812 -1.44062,1.381249 -2.88242,2.99258 -4.32617,4.767578 -2.8875,3.549997 -5.78164,7.750786 -8.68164,12.050782 -2.9,4.299995 -5.80625,8.700394 -8.71875,12.65039 -1.45625,1.974998 -2.91367,3.83633 -4.37305,5.517578 C 452.92344,74.249608 451.4625,75.750001 450,77 c -1.4625,1.249999 -2.92344,2.250587 -4.38281,3.033203 -1.45938,0.782617 -2.9168,1.348047 -4.37305,1.728516 -1.45625,0.380468 -2.91211,0.575586 -4.36523,0.61914 -1.45313,0.04355 -2.90352,-0.06484 -4.35352,-0.292968 -1.45,-0.228125 -2.89883,-0.575196 -4.3457,-1.009766 -1.44688,-0.43457 -2.89219,-0.957422 -4.33594,-1.533203 -2.8875,-1.151561 -5.76953,-2.520705 -8.64453,-3.845703 C 409.44922,72.999221 403.72499,70.500388 398,67.962891 392.27501,65.425393 386.55078,62.849997 380.80078,60 375.05079,57.150003 369.27499,54.075387 363.5,50.775391 c -5.77499,-3.299997 -11.55079,-6.826176 -17.30078,-10.576172 -2.875,-1.874998 -5.74375,-3.806252 -8.60938,-5.679688 C 334.72422,32.646096 331.8625,30.831248 329,29.1875 c -2.8625,-1.643748 -5.72422,-3.114845 -8.58984,-4.300781 -1.43281,-0.592968 -2.86797,-1.11504 -4.30274,-1.550781 -1.43476,-0.435742 -2.86914,-0.785157 -4.30664,-1.035157 -1.4375,-0.25 -2.87773,-0.401562 -4.31836,-0.464843 -1.44062,-0.06328 -2.88242,-0.03828 -4.32617,0.05859 -2.8875,0.19375 -5.78164,0.68047 -8.68164,1.355469 -2.9,0.674999 -5.80625,1.53672 -8.71875,2.480469 -2.9125,0.943749 -5.83086,1.968751 -8.75586,2.96875 -5.84999,1.999998 -11.67462,3.900783 -17.47461,5.988281 -2.9,1.043749 -5.79414,2.135157 -8.68164,3.308594 -2.8875,1.173436 -5.76953,2.429689 -8.64453,3.804687 -2.875,1.374999 -5.74375,2.868752 -8.60938,4.320313 -2.86562,1.451561 -5.72734,2.860157 -8.58984,4.066406 -2.8625,1.206249 -5.72422,2.208594 -8.58984,2.847656 -1.43281,0.319531 -2.86797,0.548633 -4.30274,0.666016 -1.43476,0.117383 -2.86914,0.123047 -4.30664,-0.002 -1.4375,-0.125 -2.87773,-0.380469 -4.31836,-0.732422 -1.44062,-0.351953 -2.88242,-0.798829 -4.32617,-1.306641 -2.8875,-1.015624 -5.78164,-2.271876 -8.68164,-3.484375 -2.9,-1.212499 -5.80625,-2.382032 -8.71875,-3.222656 -1.45625,-0.420312 -2.91367,-0.757813 -4.37305,-0.978516 -1.45937,-0.220703 -2.92031,-0.32539 -4.38281,-0.27539 -1.4625,0.0375 -2.92344,0.228125 -4.38281,0.537109 -1.45938,0.308984 -2.9168,0.736719 -4.37305,1.253906 -2.9125,1.034374 -5.81875,2.422658 -8.71875,3.910157 -2.9,1.487498 -5.79414,3.075392 -8.68164,4.509765 -2.8875,1.434374 -5.76953,2.714845 -8.64453,3.589844 -1.4375,0.4375 -2.87188,0.774024 -4.30664,1.03125 -1.43477,0.257226 -2.86993,0.435938 -4.30274,0.558594 -2.86562,0.245312 -5.72734,0.266797 -8.58984,0.248047 -2.8625,-0.01875 -5.72422,-0.07891 -8.58984,0.0039 -2.86563,0.08281 -5.73438,0.307422 -8.60938,0.857422 -2.875,0.524999 -5.756252,1.381251 -8.640624,2.414062 -2.884372,1.032812 -5.772659,2.243361 -8.660156,3.47461 -2.887497,1.231248 -5.775784,2.483204 -8.660156,3.603515 -2.884372,1.120312 -5.765628,2.108595 -8.640625,2.808594 -2.874997,0.699999 -5.743753,1.125391 -8.609375,1.330078 C 57.724222,74.034765 54.862497,74.01914 52,73.837891 49.137503,73.656641 46.275778,73.309375 43.410156,72.851562 40.544534,72.39375 37.675778,71.824218 34.800781,71.199219 29.050787,69.94922 23.274214,68.47578 18.199219,67.113281 13.124224,65.750783 8.7507783,64.499218 5.8007812,63.699219 L 0,62 Z" />
</svg>
