<?xml version="1.0" encoding="UTF-8" standalone="no"?>
<svg
   id="visual"
   viewBox="0 0 900 600"
   width="900"
   height="600"
   version="1.1"
   xmlns="http://www.w3.org/2000/svg"
   xmlns:svg="http://www.w3.org/2000/svg">
  <defs
     id="defs7" />
  <path
     d="m 0,62 5.8,1.7 c 5.9,1.6 17.5,5 29,7.5 11.5,2.5 22.9,4.1 34.4,1.3 C 80.7,69.7 92.3,62.3 103.8,60.2 115.3,58 126.7,61 138.2,57.5 149.7,54 161.3,44 173,43.7 c 11.7,-0.4 23.3,9 34.8,10 11.5,1 22.9,-6.4 34.4,-11.9 11.5,-5.5 23.1,-9.1 34.8,-13.1 11.7,-4 23.3,-8.4 34.8,-6.4 11.5,2 22.9,10.4 34.4,17.9 11.5,7.5 23.1,14.1 34.6,19.8 11.5,5.7 22.9,10.3 34.4,15.7 11.5,5.3 23.1,11.3 34.8,1.3 11.7,-10 23.3,-36 34.8,-42.8 11.5,-6.9 22.9,5.5 34.4,6.3 11.5,0.8 23.1,-9.8 34.6,-16.3 11.5,-6.5 22.9,-8.9 34.4,-2.4 11.5,6.5 23.1,21.9 34.8,33.2 11.7,11.3 23.3,18.7 34.8,16.7 11.5,-2 22.9,-13.4 34.4,-11.5 11.5,1.8 23.1,16.8 34.8,17.1 11.7,0.4 23.3,-14 34.8,-19.6 11.5,-5.7 22.9,-2.7 34.4,1 11.5,3.6 23.1,8 34.6,13 11.5,5 22.9,10.6 34.4,1.6 11.5,-9 23.1,-32.6 29,-44.5 L 900,17 V 0 h -5.8 c -5.9,0 -17.5,0 -29,0 C 853.7,0 842.3,0 830.8,0 819.3,0 807.7,0 796.2,0 784.7,0 773.3,0 761.8,0 750.3,0 738.7,0 727,0 715.3,0 703.7,0 692.2,0 680.7,0 669.3,0 657.8,0 646.3,0 634.7,0 623,0 611.3,0 599.7,0 588.2,0 576.7,0 565.3,0 553.8,0 542.3,0 530.7,0 519.2,0 507.7,0 496.3,0 484.8,0 473.3,0 461.7,0 450,0 438.3,0 426.7,0 415.2,0 403.7,0 392.3,0 380.8,0 369.3,0 357.7,0 346.2,0 334.7,0 323.3,0 311.8,0 300.3,0 288.7,0 277,0 265.3,0 253.7,0 242.2,0 230.7,0 219.3,0 207.8,0 196.3,0 184.7,0 173,0 161.3,0 149.7,0 138.2,0 126.7,0 115.3,0 103.8,0 92.3,0 80.7,0 69.2,0 57.7,0 46.3,0 34.8,0 23.3,0 11.7,0 5.8,0 H 0 Z"
     fill="#ffb6c1"
     stroke-linecap="round"
     stroke-linejoin="miter"
     id="path2" />
</svg>
