<svg id="visual" viewBox="0 0 900 200" width="900" height="200" xmlns="http://www.w3.org/2000/svg" xmlns:xlink="http://www.w3.org/1999/xlink" version="1.1"><path d="M0 83L4.8 80.3C9.7 77.7 19.3 72.3 29 69.3C38.7 66.3 48.3 65.7 58 61.7C67.7 57.7 77.3 50.3 87 56C96.7 61.7 106.3 80.3 116 81C125.7 81.7 135.3 64.3 145 56.8C154.7 49.3 164.3 51.7 174 61C183.7 70.3 193.3 86.7 203 90C212.7 93.3 222.3 83.7 232 69.2C241.7 54.7 251.3 35.3 261 36C270.7 36.7 280.3 57.3 290 73.8C299.7 90.3 309.3 102.7 319 105.3C328.7 108 338.3 101 348 95.3C357.7 89.7 367.3 85.3 377 84.5C386.7 83.7 396.3 86.3 406 93.3C415.7 100.3 425.3 111.7 435.2 120.2C445 128.7 455 134.3 464.8 126.2C474.7 118 484.3 96 494 89.8C503.7 83.7 513.3 93.3 523 83.7C532.7 74 542.3 45 552 37.8C561.7 30.7 571.3 45.3 581 45.5C590.7 45.7 600.3 31.3 610 45.7C619.7 60 629.3 103 639 111.3C648.7 119.7 658.3 93.3 668 85.8C677.7 78.3 687.3 89.7 697 89.7C706.7 89.7 716.3 78.3 726 75C735.7 71.7 745.3 76.3 755 84.5C764.7 92.7 774.3 104.3 784 107.3C793.7 110.3 803.3 104.7 813 104.5C822.7 104.3 832.3 109.7 842 110.5C851.7 111.3 861.3 107.7 871 111C880.7 114.3 890.3 124.7 895.2 129.8L900 135L900 0L895.2 0C890.3 0 880.7 0 871 0C861.3 0 851.7 0 842 0C832.3 0 822.7 0 813 0C803.3 0 793.7 0 784 0C774.3 0 764.7 0 755 0C745.3 0 735.7 0 726 0C716.3 0 706.7 0 697 0C687.3 0 677.7 0 668 0C658.3 0 648.7 0 639 0C629.3 0 619.7 0 610 0C600.3 0 590.7 0 581 0C571.3 0 561.7 0 552 0C542.3 0 532.7 0 523 0C513.3 0 503.7 0 494 0C484.3 0 474.7 0 464.8 0C455 0 445 0 435.2 0C425.3 0 415.7 0 406 0C396.3 0 386.7 0 377 0C367.3 0 357.7 0 348 0C338.3 0 328.7 0 319 0C309.3 0 299.7 0 290 0C280.3 0 270.7 0 261 0C251.3 0 241.7 0 232 0C222.3 0 212.7 0 203 0C193.3 0 183.7 0 174 0C164.3 0 154.7 0 145 0C135.3 0 125.7 0 116 0C106.3 0 96.7 0 87 0C77.3 0 67.7 0 58 0C48.3 0 38.7 0 29 0C19.3 0 9.7 0 4.8 0L0 0Z" fill="#ffb6c1" stroke-linecap="round" stroke-linejoin="miter"></path></svg>