<svg id="visual" viewBox="0 0 900 200" width="900" height="200" xmlns="http://www.w3.org/2000/svg" xmlns:xlink="http://www.w3.org/1999/xlink" version="1.1"><path d="M0 83L4.8 78.8C9.7 74.7 19.3 66.3 29 73.5C38.7 80.7 48.3 103.3 58 103C67.7 102.7 77.3 79.3 87 85.8C96.7 92.3 106.3 128.7 116 137.8C125.7 147 135.3 129 145 124.2C154.7 119.3 164.3 127.7 174 133.5C183.7 139.3 193.3 142.7 203 146.2C212.7 149.7 222.3 153.3 232 159C241.7 164.7 251.3 172.3 261 157C270.7 141.7 280.3 103.3 290 87.8C299.7 72.3 309.3 79.7 319 94.7C328.7 109.7 338.3 132.3 348 146.7C357.7 161 367.3 167 377 154.3C386.7 141.7 396.3 110.3 406 90.3C415.7 70.3 425.3 61.7 435.2 60.2C445 58.7 455 64.3 464.8 69.8C474.7 75.3 484.3 80.7 494 96.7C503.7 112.7 513.3 139.3 523 136C532.7 132.7 542.3 99.3 552 89.5C561.7 79.7 571.3 93.3 581 109.3C590.7 125.3 600.3 143.7 610 146.3C619.7 149 629.3 136 639 121.7C648.7 107.3 658.3 91.7 668 87C677.7 82.3 687.3 88.7 697 103.8C706.7 119 716.3 143 726 147.2C735.7 151.3 745.3 135.7 755 119.8C764.7 104 774.3 88 784 96C793.7 104 803.3 136 813 146.5C822.7 157 832.3 146 842 127.7C851.7 109.3 861.3 83.7 871 84.2C880.7 84.7 890.3 111.3 895.2 124.7L900 138L900 201L895.2 201C890.3 201 880.7 201 871 201C861.3 201 851.7 201 842 201C832.3 201 822.7 201 813 201C803.3 201 793.7 201 784 201C774.3 201 764.7 201 755 201C745.3 201 735.7 201 726 201C716.3 201 706.7 201 697 201C687.3 201 677.7 201 668 201C658.3 201 648.7 201 639 201C629.3 201 619.7 201 610 201C600.3 201 590.7 201 581 201C571.3 201 561.7 201 552 201C542.3 201 532.7 201 523 201C513.3 201 503.7 201 494 201C484.3 201 474.7 201 464.8 201C455 201 445 201 435.2 201C425.3 201 415.7 201 406 201C396.3 201 386.7 201 377 201C367.3 201 357.7 201 348 201C338.3 201 328.7 201 319 201C309.3 201 299.7 201 290 201C280.3 201 270.7 201 261 201C251.3 201 241.7 201 232 201C222.3 201 212.7 201 203 201C193.3 201 183.7 201 174 201C164.3 201 154.7 201 145 201C135.3 201 125.7 201 116 201C106.3 201 96.7 201 87 201C77.3 201 67.7 201 58 201C48.3 201 38.7 201 29 201C19.3 201 9.7 201 4.8 201L0 201Z" fill="#ffb6c1" stroke-linecap="round" stroke-linejoin="miter"></path></svg>