<svg id="visual" viewBox="0 0 900 200" width="900" height="200" xmlns="http://www.w3.org/2000/svg" xmlns:xlink="http://www.w3.org/1999/xlink" version="1.1"><path d="M0 114L4.8 122.2C9.7 130.3 19.3 146.7 29 137.7C38.7 128.7 48.3 94.3 58 93.5C67.7 92.7 77.3 125.3 87 141.7C96.7 158 106.3 158 116 161.7C125.7 165.3 135.3 172.7 145 171.8C154.7 171 164.3 162 174 161.7C183.7 161.3 193.3 169.7 203 172.8C212.7 176 222.3 174 232 152.8C241.7 131.7 251.3 91.3 261 90.3C270.7 89.3 280.3 127.7 290 138.8C299.7 150 309.3 134 319 115.3C328.7 96.7 338.3 75.3 348 81.8C357.7 88.3 367.3 122.7 377 142.8C386.7 163 396.3 169 406 163.5C415.7 158 425.3 141 435.2 125C445 109 455 94 464.8 81.7C474.7 69.3 484.3 59.7 494 64.8C503.7 70 513.3 90 523 109.7C532.7 129.3 542.3 148.7 552 146.7C561.7 144.7 571.3 121.3 581 118C590.7 114.7 600.3 131.3 610 130.7C619.7 130 629.3 112 639 105C648.7 98 658.3 102 668 113.2C677.7 124.3 687.3 142.7 697 151.5C706.7 160.3 716.3 159.7 726 163.8C735.7 168 745.3 177 755 174.2C764.7 171.3 774.3 156.7 784 146.2C793.7 135.7 803.3 129.3 813 130.2C822.7 131 832.3 139 842 140.8C851.7 142.7 861.3 138.3 871 122.2C880.7 106 890.3 78 895.2 64L900 50L900 201L895.2 201C890.3 201 880.7 201 871 201C861.3 201 851.7 201 842 201C832.3 201 822.7 201 813 201C803.3 201 793.7 201 784 201C774.3 201 764.7 201 755 201C745.3 201 735.7 201 726 201C716.3 201 706.7 201 697 201C687.3 201 677.7 201 668 201C658.3 201 648.7 201 639 201C629.3 201 619.7 201 610 201C600.3 201 590.7 201 581 201C571.3 201 561.7 201 552 201C542.3 201 532.7 201 523 201C513.3 201 503.7 201 494 201C484.3 201 474.7 201 464.8 201C455 201 445 201 435.2 201C425.3 201 415.7 201 406 201C396.3 201 386.7 201 377 201C367.3 201 357.7 201 348 201C338.3 201 328.7 201 319 201C309.3 201 299.7 201 290 201C280.3 201 270.7 201 261 201C251.3 201 241.7 201 232 201C222.3 201 212.7 201 203 201C193.3 201 183.7 201 174 201C164.3 201 154.7 201 145 201C135.3 201 125.7 201 116 201C106.3 201 96.7 201 87 201C77.3 201 67.7 201 58 201C48.3 201 38.7 201 29 201C19.3 201 9.7 201 4.8 201L0 201Z" fill="#ffb6c1" stroke-linecap="round" stroke-linejoin="miter"></path></svg>