<svg id="visual" viewBox="0 0 900 200" width="900" height="200" xmlns="http://www.w3.org/2000/svg" xmlns:xlink="http://www.w3.org/1999/xlink" version="1.1"><path d="M0 24L4.8 26C9.7 28 19.3 32 29 32C38.7 32 48.3 28 58 25.2C67.7 22.3 77.3 20.7 87 30.3C96.7 40 106.3 61 116 67.5C125.7 74 135.3 66 145 73.5C154.7 81 164.3 104 174 98.3C183.7 92.7 193.3 58.3 203 60.7C212.7 63 222.3 102 232 121.3C241.7 140.7 251.3 140.3 261 140.3C270.7 140.3 280.3 140.7 290 130.3C299.7 120 309.3 99 319 91C328.7 83 338.3 88 348 81.2C357.7 74.3 367.3 55.7 377 63.3C386.7 71 396.3 105 406 114.2C415.7 123.3 425.3 107.7 435.2 97C445 86.3 455 80.7 464.8 82.8C474.7 85 484.3 95 494 91.8C503.7 88.7 513.3 72.3 523 59.3C532.7 46.3 542.3 36.7 552 40.8C561.7 45 571.3 63 581 70.2C590.7 77.3 600.3 73.7 610 67.2C619.7 60.7 629.3 51.3 639 62.2C648.7 73 658.3 104 668 106.8C677.7 109.7 687.3 84.3 697 68.3C706.7 52.3 716.3 45.7 726 51C735.7 56.3 745.3 73.7 755 84C764.7 94.3 774.3 97.7 784 96.8C793.7 96 803.3 91 813 94C822.7 97 832.3 108 842 106.2C851.7 104.3 861.3 89.7 871 91.2C880.7 92.7 890.3 110.3 895.2 119.2L900 128L900 0L895.2 0C890.3 0 880.7 0 871 0C861.3 0 851.7 0 842 0C832.3 0 822.7 0 813 0C803.3 0 793.7 0 784 0C774.3 0 764.7 0 755 0C745.3 0 735.7 0 726 0C716.3 0 706.7 0 697 0C687.3 0 677.7 0 668 0C658.3 0 648.7 0 639 0C629.3 0 619.7 0 610 0C600.3 0 590.7 0 581 0C571.3 0 561.7 0 552 0C542.3 0 532.7 0 523 0C513.3 0 503.7 0 494 0C484.3 0 474.7 0 464.8 0C455 0 445 0 435.2 0C425.3 0 415.7 0 406 0C396.3 0 386.7 0 377 0C367.3 0 357.7 0 348 0C338.3 0 328.7 0 319 0C309.3 0 299.7 0 290 0C280.3 0 270.7 0 261 0C251.3 0 241.7 0 232 0C222.3 0 212.7 0 203 0C193.3 0 183.7 0 174 0C164.3 0 154.7 0 145 0C135.3 0 125.7 0 116 0C106.3 0 96.7 0 87 0C77.3 0 67.7 0 58 0C48.3 0 38.7 0 29 0C19.3 0 9.7 0 4.8 0L0 0Z" fill="#ffb6c1" stroke-linecap="round" stroke-linejoin="miter"></path></svg>