<svg id="visual" viewBox="0 0 900 200" width="900" height="200" xmlns="http://www.w3.org/2000/svg" xmlns:xlink="http://www.w3.org/1999/xlink" version="1.1"><path d="M0 51L4.8 50.7C9.7 50.3 19.3 49.7 29 54.8C38.7 60 48.3 71 58 85.2C67.7 99.3 77.3 116.7 87 112.5C96.7 108.3 106.3 82.7 116 74C125.7 65.3 135.3 73.7 145 82C154.7 90.3 164.3 98.7 174 109.7C183.7 120.7 193.3 134.3 203 136C212.7 137.7 222.3 127.3 232 116.5C241.7 105.7 251.3 94.3 261 87.2C270.7 80 280.3 77 290 73.2C299.7 69.3 309.3 64.7 319 56.7C328.7 48.7 338.3 37.3 348 28.8C357.7 20.3 367.3 14.7 377 32.8C386.7 51 396.3 93 406 104.3C415.7 115.7 425.3 96.3 435.2 93.8C445 91.3 455 105.7 464.8 111C474.7 116.3 484.3 112.7 494 104.8C503.7 97 513.3 85 523 89C532.7 93 542.3 113 552 112.3C561.7 111.7 571.3 90.3 581 78.7C590.7 67 600.3 65 610 77C619.7 89 629.3 115 639 127.2C648.7 139.3 658.3 137.7 668 122.5C677.7 107.3 687.3 78.7 697 70.5C706.7 62.3 716.3 74.7 726 81.2C735.7 87.7 745.3 88.3 755 89C764.7 89.7 774.3 90.3 784 81.3C793.7 72.3 803.3 53.7 813 41.5C822.7 29.3 832.3 23.7 842 42C851.7 60.3 861.3 102.7 871 108.7C880.7 114.7 890.3 84.3 895.2 69.2L900 54L900 0L895.2 0C890.3 0 880.7 0 871 0C861.3 0 851.7 0 842 0C832.3 0 822.7 0 813 0C803.3 0 793.7 0 784 0C774.3 0 764.7 0 755 0C745.3 0 735.7 0 726 0C716.3 0 706.7 0 697 0C687.3 0 677.7 0 668 0C658.3 0 648.7 0 639 0C629.3 0 619.7 0 610 0C600.3 0 590.7 0 581 0C571.3 0 561.7 0 552 0C542.3 0 532.7 0 523 0C513.3 0 503.7 0 494 0C484.3 0 474.7 0 464.8 0C455 0 445 0 435.2 0C425.3 0 415.7 0 406 0C396.3 0 386.7 0 377 0C367.3 0 357.7 0 348 0C338.3 0 328.7 0 319 0C309.3 0 299.7 0 290 0C280.3 0 270.7 0 261 0C251.3 0 241.7 0 232 0C222.3 0 212.7 0 203 0C193.3 0 183.7 0 174 0C164.3 0 154.7 0 145 0C135.3 0 125.7 0 116 0C106.3 0 96.7 0 87 0C77.3 0 67.7 0 58 0C48.3 0 38.7 0 29 0C19.3 0 9.7 0 4.8 0L0 0Z" fill="#ffb6c1" stroke-linecap="round" stroke-linejoin="miter"></path></svg>